<svg height="496.00049pt" viewBox="0 0 496.00049 496.00049" width="496.00049pt" xmlns="http://www.w3.org/2000/svg"><path d="m439.59375 260c-2.855469 46.699219-22.714844 90.734375-55.824219 123.785156l33.933594 33.933594c45.085937-44.964844 70.382813-106.042969 70.296875-169.71875h-48c0 4-.167969 8-.40625 12zm0 0" fill="#ff9811"/><path d="m260 439.59375c-4 .238281-8 .40625-12 .40625v48c63.667969.082031 124.742188-25.214844 169.703125-70.296875l-33.933594-33.933594c-33.046875 33.109375-77.078125 52.964844-123.769531 55.824219zm0 0" fill="#ff9811"/><path d="m56.410156 260c-.242187-4-.410156-8-.410156-12h-48c-.082031 63.667969 25.21875 124.742188 70.296875 169.703125l33.933594-33.933594c-33.105469-33.046875-52.964844-77.078125-55.820313-123.769531zm0 0" fill="#ff9811"/><path d="m236 56.410156c4-.242187 8-.410156 12-.410156v-48c-63.667969-.082031-124.742188 25.21875-169.703125 70.296875l33.933594 33.933594c33.050781-33.105469 77.078125-52.964844 123.769531-55.820313zm0 0" fill="#ff9811"/><path d="m260 56.410156c46.699219 2.851563 90.734375 22.710938 123.785156 55.820313l33.933594-33.933594c-44.964844-45.082031-106.042969-70.382813-169.71875-70.296875v48c4 0 8 .167969 12 .410156zm0 0" fill="#ff9811"/><path d="m236 439.59375c-46.699219-2.855469-90.734375-22.714844-123.785156-55.824219l-33.933594 33.933594c44.964844 45.085937 106.046875 70.382813 169.71875 70.296875v-48c-4 0-8-.167969-12-.40625zm0 0" fill="#ff9811"/><path d="m56.410156 236c2.851563-46.699219 22.710938-90.734375 55.820313-123.785156l-33.933594-33.933594c-45.082031 44.964844-70.382813 106.046875-70.296875 169.71875h48c0-4 .167969-8 .410156-12zm0 0" fill="#ff9811"/><path d="m383.769531 112.230469c33.109375 33.050781 52.964844 77.078125 55.824219 123.769531.238281 4 .40625 7.953125.40625 12h48c.082031-63.667969-25.214844-124.742188-70.296875-169.703125zm0 0" fill="#ff9811"/><path d="m195 301c6.007812 3.28125 11.09375 8.027344 14.777344 13.800781.117187.183594.269531.351563.382812.542969.238282.382812.40625.800781.632813 1.191406 3.40625 5.921875 5.203125 12.632813 5.207031 19.464844 0 22.089844-17.910156 40-40 40-6.832031-.003906-13.542969-1.800781-19.464844-5.207031-.390625-.226563-.800781-.394531-1.191406-.632813-.191406-.113281-.359375-.265625-.542969-.382812-5.773437-3.683594-10.519531-8.769532-13.800781-14.777344l-28.800781 28.761719c33.054687 33.117187 77.097656 52.980469 123.800781 55.832031 4 .238281 7.953125.40625 12 .40625v-192zm13 107c-4.417969 0-8-3.582031-8-8s3.582031-8 8-8 8 3.582031 8 8-3.582031 8-8 8zm0 0" fill="#ffeb99"/><path d="m248 440c-4 0-8-.167969-12-.40625 4 .238281 8 .40625 12 .40625zm0 0" fill="#ffeb99"/><path d="m141 355c-3.234375-5.8125-4.957031-12.347656-5-19 0-22.089844 17.910156-40 40-40 6.652344.042969 13.1875 1.765625 19 5l53-53h-72.800781c-2.769531 13.609375-12.394531 24.8125-25.429688 29.601562-1.550781.523438-3.132812.953126-4.738281 1.277344-.65625.152344-1.269531.410156-1.941406.53125-4.691406.832032-9.488282.832032-14.175782 0-.671874-.121094-1.289062-.378906-1.945312-.53125-1.605469-.324218-3.1875-.753906-4.738281-1.277344-13.035157-4.789062-22.660157-15.992187-25.429688-29.601562h-40.800781c0 4 .167969 8 .410156 12 2.859375 46.691406 22.71875 90.714844 55.832032 123.761719zm-37-35c-4.417969 0-8-3.582031-8-8s3.582031-8 8-8 8 3.582031 8 8-3.582031 8-8 8zm0 0" fill="#ffeb99"/><path d="m56.410156 260c-.242187-4-.410156-8-.410156-12 0 4 .167969 8 .410156 12zm0 0" fill="#ffeb99"/><path d="m355 141c6.007812 3.28125 11.09375 8.027344 14.777344 13.800781.117187.183594.269531.351563.382812.542969.238282.382812.40625.800781.632813 1.191406 3.40625 5.921875 5.203125 12.632813 5.207031 19.464844 0 22.089844-17.910156 40-40 40-6.832031-.003906-13.542969-1.800781-19.464844-5.207031-.390625-.226563-.800781-.394531-1.191406-.632813-.191406-.113281-.359375-.265625-.542969-.382812-5.773437-3.683594-10.519531-8.769532-13.800781-14.777344l-53 53h192c0-4-.167969-8-.40625-12-2.863281-46.691406-22.722656-90.714844-55.832031-123.757812zm45 67c4.417969 0 8 3.582031 8 8s-3.582031 8-8 8-8-3.582031-8-8 3.582031-8 8-8zm0 0" fill="#ffeb99"/><path d="m439.59375 236c.238281 4 .40625 7.953125.40625 12 0-4-.167969-8-.40625-12zm0 0" fill="#ffeb99"/><path d="m96 240c0-22.089844 17.910156-40 40-40s40 17.910156 40 40c-.019531 2.6875-.289062 5.363281-.800781 8h72.800781l-135.757812-135.757812c-33.113282 33.042968-52.972657 77.066406-55.832032 123.757812-.242187 4-.410156 8-.410156 12h40.800781c-.511719-2.636719-.78125-5.3125-.800781-8zm16-88c8.835938 0 16 7.164062 16 16s-7.164062 16-16 16-16-7.164062-16-16 7.164062-16 16-16zm0 0" fill="#ffeb99"/><path d="m56 248c0-4 .167969-8 .410156-12-.242187 4-.410156 8-.410156 12zm0 0" fill="#ffeb99"/><path d="m248 248v-75.359375c-.097656.039063-.199219.054687-.289062.09375-2.304688.992187-4.699219 1.765625-7.152344 2.3125l-.503906.105469c-2.648438.558594-5.347657.84375-8.054688.847656-15.285156.039062-29.257812-8.632812-36-22.351562-6.746094-13.71875-5.082031-30.078126 4.285156-42.160157 9.367188-12.078125 24.796875-17.765625 39.761719-14.648437l.519531.121094c2.449219.542968 4.835938 1.3125 7.136719 2.304687.089844.039063.199219.054687.296875.09375v-43.359375c-4 0-8 .167969-12 .410156-46.691406 2.859375-90.714844 22.71875-123.757812 55.832032zm-80-144c4.417969 0 8 3.582031 8 8s-3.582031 8-8 8-8-3.582031-8-8 3.582031-8 8-8zm0 0" fill="#ffeb99"/><path d="m236 56.410156c4-.242187 8-.410156 12-.410156-4 0-8 .167969-12 .410156zm0 0" fill="#ffeb99"/><path d="m283.679688 283.679688c5.175781-5.085938 11.632812-8.679688 18.679687-10.398438 3.148437-.824219 6.386719-1.253906 9.640625-1.28125 22.089844 0 40 17.910156 40 40-.039062 3.242188-.476562 6.464844-1.304688 9.601562-1.71875 7.046876-5.3125 13.503907-10.398437 18.679688l43.4375 43.4375c33.113281-33.027344 52.980469-77.039062 55.859375-123.71875.238281-4 .40625-8 .40625-12h-192zm108.320312-3.679688c8.835938 0 16 7.164062 16 16s-7.164062 16-16 16-16-7.164062-16-16 7.164062-16 16-16zm0 0" fill="#ffeb99"/><path d="m440 248c0 4-.167969 8-.40625 12 .238281-4 .40625-8 .40625-12zm0 0" fill="#ffeb99"/><path d="m340.320312 340.320312c-5.175781 5.085938-11.628906 8.679688-18.679687 10.398438-3.148437.824219-6.386719 1.253906-9.640625 1.28125-22.089844 0-40-17.910156-40-40 .035156-3.242188.464844-6.464844 1.289062-9.601562 1.710938-7.066407 5.304688-13.542969 10.398438-18.734376l-35.6875-35.664062v192c4 0 8-.167969 12-.40625 46.691406-2.863281 90.714844-22.722656 123.761719-55.832031zm-60.320312 67.679688c-8.835938 0-16-7.164062-16-16s7.164062-16 16-16 16 7.164062 16 16-7.164062 16-16 16zm56-16c-4.417969 0-8-3.582031-8-8s3.582031-8 8-8 8 3.582031 8 8-3.582031 8-8 8zm0 0" fill="#ffeb99"/><path d="m260 439.59375c-4 .238281-8 .40625-12 .40625 4 0 8-.167969 12-.40625zm0 0" fill="#ffeb99"/><path d="m265.28125 113.839844c8.960938 13.414062 8.960938 30.90625 0 44.320312-4.265625 6.375-10.257812 11.398438-17.28125 14.480469v75.359375l53-53c-3.234375-5.8125-4.957031-12.347656-5-19 0-22.089844 17.910156-40 40-40 6.652344.042969 13.1875 1.765625 19 5l28.761719-28.800781c-33.050781-33.09375-77.078125-52.941407-123.761719-55.789063-4-.242187-8-.410156-12-.410156v43.359375c7.023438 3.082031 13.015625 8.105469 17.28125 14.480469zm38.71875-25.839844c8.835938 0 16 7.164062 16 16s-7.164062 16-16 16-16-7.164062-16-16 7.164062-16 16-16zm0 0" fill="#ffeb99"/><path d="m248 56c4 0 8 .167969 12 .410156-4-.242187-8-.410156-12-.410156zm0 0" fill="#ffeb99"/><g fill="#d80027"><path d="m175.199219 248h-78.398438c2.769531 13.605469 12.390625 24.808594 25.421875 29.601562 1.550782.523438 3.132813.953126 4.738282 1.277344.65625.152344 1.269531.410156 1.941406.53125 4.691406.832032 9.488281.832032 14.179687 0 .671875-.121094 1.285157-.378906 1.941407-.53125 1.605468-.324218 3.1875-.753906 4.738281-1.277344 13.035156-4.789062 22.664062-15.992187 25.4375-29.601562zm0 0"/><path d="m149.769531 277.601562c-1.550781.523438-3.132812.953126-4.738281 1.277344 1.605469-.324218 3.1875-.753906 4.738281-1.277344zm0 0"/><path d="m143.089844 279.375c-2.339844.417969-4.714844.625-7.089844.625 2.375 0 4.75-.207031 7.089844-.625zm0 0"/><path d="m126.96875 278.847656c-1.605469-.324218-3.1875-.753906-4.738281-1.28125 1.550781.527344 3.132812.957032 4.738281 1.28125zm0 0"/><path d="m136 280c-2.375 0-4.746094-.207031-7.085938-.625 2.339844.417969 4.710938.625 7.085938.625zm0 0"/><path d="m175.199219 248c3.226562-15.894531-3.460938-32.160156-16.933594-41.1875-13.46875-9.027344-31.058594-9.027344-44.53125 0s-20.160156 25.292969-16.933594 41.1875zm0 0"/><path d="m176 240c0-22.089844-17.910156-40-40-40 22.089844 0 40 17.910156 40 40zm0 0"/><path d="m136 200c-22.089844 0-40 17.910156-40 40 0-22.089844 17.910156-40 40-40zm0 0"/><path d="m248 99.375-.296875-.109375c-2.296875-.996094-4.6875-1.769531-7.136719-2.304687l-.519531-.121094c-14.964844-3.117188-30.394531 2.570312-39.761719 14.648437-9.367187 12.082031-11.03125 28.441407-4.285156 42.160157 6.742188 13.71875 20.714844 22.390624 36 22.351562 2.707031-.003906 5.40625-.289062 8.054688-.847656l.503906-.105469c2.453125-.542969 4.847656-1.316406 7.152344-2.3125l.289062-.109375zm0 0"/><path d="m232 96c2.703125.007812 5.402344.289062 8.046875.839844-2.644531-.550782-5.34375-.832032-8.046875-.839844zm0 0"/><path d="m240.566406 96.960938c2.449219.535156 4.839844 1.308593 7.136719 2.304687-2.300781-.992187-4.6875-1.761719-7.136719-2.304687zm0 0"/><path d="m232 96c-22.089844 0-40 17.910156-40 40 0-22.089844 17.910156-40 40-40zm0 0"/><path d="m240.054688 175.152344c-2.648438.558594-5.347657.84375-8.054688.847656 2.707031-.003906 5.40625-.289062 8.054688-.847656zm0 0"/><path d="m192 136c0 22.089844 17.910156 40 40 40-22.089844 0-40-17.910156-40-40zm0 0"/><path d="m247.710938 172.734375c-2.304688.996094-4.699219 1.769531-7.152344 2.3125 2.453125-.546875 4.847656-1.320313 7.152344-2.3125zm0 0"/><path d="m248 99.375v73.25c7.019531-3.078125 13.015625-8.097656 17.28125-14.464844 8.960938-13.414062 8.960938-30.90625 0-44.320312-4.265625-6.367188-10.261719-11.386719-17.28125-14.464844zm0 0"/><path d="m272 136c.011719 7.890625-2.328125 15.605469-6.71875 22.160156 4.390625-6.554687 6.730469-14.269531 6.71875-22.160156zm0 0"/><path d="m265.28125 113.839844c4.390625 6.554687 6.730469 14.269531 6.71875 22.160156.011719-7.890625-2.328125-15.605469-6.71875-22.160156zm0 0"/><path d="m354.960938 141.039062-53.921876 53.921876c3.257813 6.023437 7.992188 11.125 13.761719 14.816406.183594.117187.351563.269531.542969.382812.382812.238282.800781.40625 1.191406.632813 5.921875 3.402343 12.632813 5.199219 19.464844 5.207031 22.089844 0 40-17.910156 40-40-.007812-6.832031-1.804688-13.542969-5.207031-19.464844-.226563-.390625-.394531-.800781-.632813-1.191406-.113281-.191406-.265625-.359375-.382812-.542969-3.691406-5.769531-8.792969-10.503906-14.816406-13.761719zm0 0"/><path d="m336 216c22.089844 0 40-17.910156 40-40 0 22.089844-17.910156 40-40 40zm0 0"/><path d="m301.039062 194.960938h-.039062c3.28125 6.007812 8.027344 11.089843 13.800781 14.773437-5.765625-3.679687-10.5-8.761719-13.761719-14.773437zm0 0"/><path d="m369.777344 154.800781c-3.683594-5.773437-8.769532-10.519531-14.777344-13.800781h-.039062c6.03125 3.265625 11.128906 8.015625 14.816406 13.800781zm0 0"/><path d="m370.160156 155.34375c.238282.382812.40625.800781.632813 1.191406-.226563-.390625-.394531-.808594-.632813-1.191406zm0 0"/><path d="m316.535156 210.792969c-.390625-.226563-.800781-.394531-1.191406-.632813.382812.238282.800781.40625 1.191406.632813zm0 0"/><path d="m354.960938 141.039062c-5.789063-3.269531-12.3125-5.003906-18.960938-5.039062-22.089844 0-40 17.910156-40 40 .035156 6.648438 1.769531 13.171875 5.039062 18.960938zm0 0"/><path d="m355 141-.039062.039062zm0 0"/><path d="m296 176c.042969 6.652344 1.765625 13.1875 5 19h.039062c-3.273437-5.796875-5.007812-12.339844-5.039062-19zm0 0"/><path d="m354.960938 141.039062h.039062c-5.808594-3.25-12.34375-4.980468-19-5.039062 6.648438.035156 13.171875 1.769531 18.960938 5.039062zm0 0"/><path d="m336 136c-22.089844 0-40 17.910156-40 40 0-22.089844 17.910156-40 40-40zm0 0"/></g><path d="m320 104c0 8.835938-7.164062 16-16 16s-16-7.164062-16-16 7.164062-16 16-16 16 7.164062 16 16zm0 0" fill="#ff9811"/><path d="m304 120c8.835938 0 16-7.164062 16-16-.027344 8.824219-7.175781 15.972656-16 16zm0 0" fill="#ff9811"/><path d="m320 104c0-8.835938-7.164062-16-16-16 8.824219.027344 15.972656 7.175781 16 16zm0 0" fill="#ff9811"/><path d="m304 120c-8.824219-.027344-15.972656-7.175781-16-16 0 8.835938 7.164062 16 16 16zm0 0" fill="#ff9811"/><path d="m304 88c-8.835938 0-16 7.164062-16 16 .027344-8.824219 7.175781-15.972656 16-16zm0 0" fill="#ff9811"/><path d="m408 296c0 8.835938-7.164062 16-16 16s-16-7.164062-16-16 7.164062-16 16-16 16 7.164062 16 16zm0 0" fill="#ff9811"/><path d="m408 296c0-8.835938-7.164062-16-16-16 8.824219.027344 15.972656 7.175781 16 16zm0 0" fill="#ff9811"/><path d="m392 312c-8.824219-.027344-15.972656-7.175781-16-16 0 8.835938 7.164062 16 16 16zm0 0" fill="#ff9811"/><path d="m392 312c8.835938 0 16-7.164062 16-16-.027344 8.824219-7.175781 15.972656-16 16zm0 0" fill="#ff9811"/><path d="m392 280c-8.835938 0-16 7.164062-16 16 .027344-8.824219 7.175781-15.972656 16-16zm0 0" fill="#ff9811"/><path d="m296 392c0 8.835938-7.164062 16-16 16s-16-7.164062-16-16 7.164062-16 16-16 16 7.164062 16 16zm0 0" fill="#ff9811"/><path d="m280 408c8.835938 0 16-7.164062 16-16-.027344 8.824219-7.175781 15.972656-16 16zm0 0" fill="#ff9811"/><path d="m264 392c0 8.835938 7.164062 16 16 16-8.824219-.027344-15.972656-7.175781-16-16zm0 0" fill="#ff9811"/><path d="m280 376c8.824219.027344 15.972656 7.175781 16 16 0-8.835938-7.164062-16-16-16zm0 0" fill="#ff9811"/><path d="m280 376c-8.835938 0-16 7.164062-16 16 .027344-8.824219 7.175781-15.972656 16-16zm0 0" fill="#ff9811"/><path d="m216 400c0 4.417969-3.582031 8-8 8s-8-3.582031-8-8 3.582031-8 8-8 8 3.582031 8 8zm0 0" fill="#acabb1"/><path d="m208 392c4.417969 0 8 3.582031 8 8 0-4.417969-3.582031-8-8-8zm0 0" fill="#acabb1"/><path d="m208 408c4.417969 0 8-3.582031 8-8 0 4.417969-3.582031 8-8 8zm0 0" fill="#acabb1"/><path d="m208 392c-4.417969 0-8 3.582031-8 8 0-4.417969 3.582031-8 8-8zm0 0" fill="#acabb1"/><path d="m200 400c0 4.417969 3.582031 8 8 8-4.417969 0-8-3.582031-8-8zm0 0" fill="#acabb1"/><path d="m112 312c0 4.417969-3.582031 8-8 8s-8-3.582031-8-8 3.582031-8 8-8 8 3.582031 8 8zm0 0" fill="#acabb1"/><path d="m96 312c0 4.417969 3.582031 8 8 8-4.417969 0-8-3.582031-8-8zm0 0" fill="#acabb1"/><path d="m104 304c4.417969 0 8 3.582031 8 8 0-4.417969-3.582031-8-8-8zm0 0" fill="#acabb1"/><path d="m104 320c4.417969 0 8-3.582031 8-8 0 4.417969-3.582031 8-8 8zm0 0" fill="#acabb1"/><path d="m104 304c-4.417969 0-8 3.582031-8 8 0-4.417969 3.582031-8 8-8zm0 0" fill="#acabb1"/><path d="m176 112c0 4.417969-3.582031 8-8 8s-8-3.582031-8-8 3.582031-8 8-8 8 3.582031 8 8zm0 0" fill="#acabb1"/><path d="m160 112c0 4.417969 3.582031 8 8 8-4.417969 0-8-3.582031-8-8zm0 0" fill="#acabb1"/><path d="m168 120c4.417969 0 8-3.582031 8-8 0 4.417969-3.582031 8-8 8zm0 0" fill="#acabb1"/><path d="m176 112c0-4.417969-3.582031-8-8-8 4.417969 0 8 3.582031 8 8zm0 0" fill="#acabb1"/><path d="m168 104c-4.417969 0-8 3.582031-8 8 0-4.417969 3.582031-8 8-8zm0 0" fill="#acabb1"/><path d="m408 216c0 4.417969-3.582031 8-8 8s-8-3.582031-8-8 3.582031-8 8-8 8 3.582031 8 8zm0 0" fill="#acabb1"/><path d="m408 216c0-4.417969-3.582031-8-8-8 4.417969 0 8 3.582031 8 8zm0 0" fill="#acabb1"/><path d="m400 208c-4.417969 0-8 3.582031-8 8 0-4.417969 3.582031-8 8-8zm0 0" fill="#acabb1"/><path d="m400 224c4.417969 0 8-3.582031 8-8 0 4.417969-3.582031 8-8 8zm0 0" fill="#acabb1"/><path d="m400 224c-4.417969 0-8-3.582031-8-8 0 4.417969 3.582031 8 8 8zm0 0" fill="#acabb1"/><path d="m344 384c0 4.417969-3.582031 8-8 8s-8-3.582031-8-8 3.582031-8 8-8 8 3.582031 8 8zm0 0" fill="#acabb1"/><path d="m328 384c0 4.417969 3.582031 8 8 8-4.417969 0-8-3.582031-8-8zm0 0" fill="#acabb1"/><path d="m336 392c4.417969 0 8-3.582031 8-8 0 4.417969-3.582031 8-8 8zm0 0" fill="#acabb1"/><path d="m344 384c0-4.417969-3.582031-8-8-8 4.417969 0 8 3.582031 8 8zm0 0" fill="#acabb1"/><path d="m336 376c-4.417969 0-8 3.582031-8 8 0-4.417969 3.582031-8 8-8zm0 0" fill="#acabb1"/><path d="m128 168c0 8.835938-7.164062 16-16 16s-16-7.164062-16-16 7.164062-16 16-16 16 7.164062 16 16zm0 0" fill="#ff9811"/><path d="m112 152c-8.835938 0-16 7.164062-16 16 .027344-8.824219 7.175781-15.972656 16-16zm0 0" fill="#ff9811"/><path d="m128 168c0-8.835938-7.164062-16-16-16 8.824219.027344 15.972656 7.175781 16 16zm0 0" fill="#ff9811"/><path d="m112 184c8.835938 0 16-7.164062 16-16-.027344 8.824219-7.175781 15.972656-16 16zm0 0" fill="#ff9811"/><path d="m112 184c-8.824219-.027344-15.972656-7.175781-16-16 0 8.835938 7.164062 16 16 16zm0 0" fill="#ff9811"/><path d="m194.960938 301.039062-53.921876 53.921876c3.257813 6.023437 7.992188 11.125 13.761719 14.816406.183594.117187.351563.269531.542969.382812.382812.238282.800781.40625 1.191406.632813 5.921875 3.402343 12.632813 5.199219 19.464844 5.207031 22.089844 0 40-17.910156 40-40-.007812-6.832031-1.804688-13.542969-5.207031-19.464844-.226563-.390625-.394531-.800781-.632813-1.191406-.113281-.191406-.265625-.359375-.382812-.542969-3.691406-5.769531-8.792969-10.503906-14.816406-13.761719zm0 0" fill="#d80027"/><path d="m209.777344 314.800781c-3.683594-5.773437-8.769532-10.519531-14.777344-13.800781v.039062c6.011719 3.261719 11.09375 7.996094 14.777344 13.761719zm0 0" fill="#d80027"/><path d="m156.535156 370.792969c-.390625-.226563-.800781-.394531-1.191406-.632813.382812.238282.800781.40625 1.191406.632813zm0 0" fill="#d80027"/><path d="m210.160156 315.34375c.238282.382812.40625.800781.632813 1.191406-.226563-.390625-.394531-.808594-.632813-1.191406zm0 0" fill="#d80027"/><path d="m141.039062 354.960938v.039062c3.28125 6.007812 8.03125 11.09375 13.800782 14.777344-5.78125-3.6875-10.53125-8.785156-13.800782-14.816406zm0 0" fill="#d80027"/><path d="m176 376c22.089844 0 40-17.910156 40-40 0 22.089844-17.910156 40-40 40zm0 0" fill="#d80027"/><path d="m194.960938 301.039062c-5.789063-3.269531-12.3125-5.003906-18.960938-5.039062-22.089844 0-40 17.910156-40 40 .035156 6.648438 1.769531 13.171875 5.039062 18.960938zm0 0" fill="#d80027"/><path d="m136 336c.042969 6.652344 1.765625 13.1875 5 19v-.039062c-3.253906-5.792969-4.976562-12.316407-5-18.960938zm0 0" fill="#d80027"/><path d="m176 296c-22.089844 0-40 17.910156-40 40 0-22.089844 17.910156-40 40-40zm0 0" fill="#d80027"/><path d="m194.960938 301.039062v-.039062c-5.800782-3.230469-12.320313-4.949219-18.960938-5 6.648438.035156 13.171875 1.769531 18.960938 5.039062zm0 0" fill="#d80027"/><path d="m340.289062 340.289062c5.09375-5.15625 8.691407-11.605468 10.398438-18.648437.832031-3.148437 1.273438-6.386719 1.3125-9.640625 0-22.089844-17.910156-40-40-40-3.242188.039062-6.464844.476562-9.601562 1.304688-7.042969 1.707031-13.488282 5.304687-18.644532 10.398437zm0 0" fill="#d80027"/><path d="m352 312c-.039062 3.242188-.476562 6.464844-1.304688 9.601562.828126-3.136718 1.265626-6.359374 1.304688-9.601562zm0 0" fill="#d80027"/><path d="m302.398438 273.304688c3.136718-.828126 6.359374-1.265626 9.601562-1.304688-3.242188.039062-6.464844.476562-9.601562 1.304688zm0 0" fill="#d80027"/><path d="m352 312c0-22.089844-17.910156-40-40-40 22.089844 0 40 17.910156 40 40zm0 0" fill="#d80027"/><path d="m283.710938 283.710938c-5.101563 5.171874-8.699219 11.640624-10.398438 18.707031-.828125 3.128906-1.269531 6.347656-1.3125 9.582031 0 22.089844 17.910156 40 40 40 3.242188-.039062 6.464844-.476562 9.601562-1.304688 7.042969-1.707031 13.492188-5.304687 18.648438-10.398437zm0 0" fill="#d80027"/><path d="m272 312c.035156-3.242188.464844-6.464844 1.289062-9.601562-.824218 3.136718-1.253906 6.359374-1.289062 9.601562zm0 0" fill="#d80027"/><path d="m272 312c0 22.089844 17.910156 40 40 40-22.089844 0-40-17.910156-40-40zm0 0" fill="#d80027"/><path d="m321.640625 350.695312c-3.148437.832032-6.386719 1.269532-9.640625 1.304688 3.253906-.035156 6.492188-.472656 9.640625-1.304688zm0 0" fill="#d80027"/><path d="m423.734375 422.800781c96.355469-96.617187 96.355469-252.984375 0-349.601562-.113281-.195313-.238281-.378907-.375-.558594-.175781-.136719-.363281-.261719-.558594-.375-96.617187-96.355469-252.984375-96.355469-349.601562 0-.195313.113281-.378907.238281-.558594.375-.136719.179687-.261719.363281-.375.558594-96.355469 96.617187-96.355469 252.984375 0 349.601562.113281.195313.238281.382813.375.558594.179687.136719.363281.261719.558594.375 96.617187 96.355469 252.984375 96.355469 349.601562 0 .421875-.175781.757813-.511719.933594-.933594zm-407.535156-166.800781h32c1.867187 47.472656 20.636719 92.714844 52.921875 127.566406l-22.617188 22.617188c-38.277344-40.859375-60.414062-94.226563-62.304687-150.183594zm62.304687-166.183594 22.617188 22.617188c-32.285156 34.851562-51.054688 80.09375-52.921875 127.566406h-32c1.890625-55.957031 24.027343-109.324219 62.304687-150.183594zm401.296875 150.183594h-32c-1.867187-47.472656-20.636719-92.714844-52.921875-127.566406l22.617188-22.617188c38.277344 40.859375 60.414062 94.226563 62.304687 150.183594zm-111.800781-64c.054688 13.554688-8.46875 25.660156-21.246094 30.175781-12.78125 4.515625-27.019531.453125-35.488281-10.128906l44.796875-44.796875c7.523438 6.015625 11.914062 15.117188 11.9375 24.75zm-63.566406 4.257812c-.242188-1.410156-.386719-2.832031-.433594-4.257812 0-17.671875 14.328125-32 32-32 1.425781.046875 2.847656.191406 4.257812.433594zm31.566406-52.257812c-15.851562-.03125-30.695312 7.78125-39.640625 20.871094-8.949219 13.085937-10.839844 29.753906-5.054687 44.511718l-35.304688 35.304688v-51.199219c14.847656-8.546875 24-24.371093 24-41.503906s-9.152344-32.957031-24-41.503906v-30.28125c43.230469 1.851562 84.410156 18.9375 116.257812 48.234375l-18.875 18.871094c-5.535156-2.175782-11.433593-3.296876-17.382812-3.304688zm-80-12.945312c10.667969 11.925781 10.667969 29.964843 0 41.890624zm-16 51.808593c-2.605469.722657-5.296875 1.101563-8 1.136719-17.671875 0-32-14.328125-32-32s14.328125-32 32-32c2.703125.035156 5.394531.414062 8 1.136719zm0-78.144531c-18.859375-3.300781-37.878906 4.917969-48.394531 20.917969-10.515625 16.003906-10.515625 36.722656 0 52.726562 10.515625 16 29.535156 24.222657 48.394531 20.917969v45.40625l-116.253906-116.253906c31.84375-29.296875 73.023437-46.382813 116.253906-48.234375zm-11.3125 151.28125h-44.6875c0-26.507812-21.488281-48-48-48-26.507812 0-48 21.492188-48 48h-23.800781c1.851562-43.230469 18.9375-84.410156 48.234375-116.253906zm-124.6875 0c0-17.671875 14.328125-32 32-32s32 14.328125 32 32zm59.550781 16c-5.644531 9.894531-16.160156 16.003906-27.550781 16.003906s-21.90625-6.109375-27.550781-16.003906zm-72.75 0c6.75 19.175781 24.867188 32.003906 45.199219 32.003906s38.449219-12.828125 45.199219-32.003906h47.488281l-35.304688 35.304688c-17.726562-6.949219-37.886718-2.734376-51.351562 10.726562-13.460938 13.464844-17.675781 33.625-10.726562 51.351562l-18.871094 18.875c-29.296875-31.847656-46.382813-73.027343-48.234375-116.257812zm117.199219 80c.054688 13.554688-8.46875 25.660156-21.246094 30.175781-12.78125 4.515625-27.019531.453125-35.488281-10.128906l44.796875-44.796875c7.523438 6.015625 11.914062 15.117188 11.9375 24.75zm-63.566406 4.257812c-.242188-1.410156-.386719-2.832031-.433594-4.257812 0-17.671875 14.328125-32 32-32 1.425781.046875 2.847656.191406 4.257812.433594zm-4.59375 27.199219c11.753906 13.554688 30.09375 19.414063 47.53125 15.179688 17.4375-4.230469 31.050781-17.84375 35.28125-35.28125 4.234375-17.4375-1.625-35.777344-15.179688-47.53125l32.527344-32.511719v164.488281c-43.230469-1.851562-84.410156-18.9375-116.253906-48.234375zm116.160156 24.542969v-124.6875l16.921875 16.917969c-13.621094 19.0625-11.460937 45.175781 5.105469 61.742187s42.679687 18.726563 61.742187 5.109375l32.488281 32.484375c-31.847656 29.296875-73.027343 46.382813-116.257812 48.234375zm83.464844-63.847656-43.617188-43.617188c4.878906-2.941406 10.457032-4.507812 16.152344-4.535156 17.671875 0 32 14.328125 32 32-.027344 5.695312-1.59375 11.277344-4.535156 16.152344zm-11.3125 11.3125c-4.875 2.941406-10.457032 4.507812-16.152344 4.535156-17.671875 0-32-14.328125-32-32 .027344-5.695312 1.59375-11.273438 4.535156-16.152344zm22.929687.304687c13.617188-19.0625 11.457031-45.175781-5.109375-61.742187s-42.679687-18.726563-61.742187-5.105469l-16.917969-16.921875h164.488281c-1.851562 43.230469-18.9375 84.410156-48.234375 116.257812zm-83.769531-99.769531 32.527344-32.527344c11.753906 13.554688 30.09375 19.414063 47.53125 15.179688 17.4375-4.230469 31.050781-17.84375 35.28125-35.28125 4.234375-17.4375-1.625-35.777344-15.179688-47.53125l16.09375-16.09375c29.296875 31.84375 46.382813 73.023437 48.234375 116.253906zm116.253906-138.878906c-34.851562-32.285156-80.09375-51.054688-127.566406-52.921875v-32c55.957031 1.890625 109.324219 24.027343 150.183594 62.304687zm-143.566406-52.921875c-47.472656 1.867187-92.714844 20.636719-127.566406 52.921875l-22.617188-22.617188c40.859375-38.277344 94.226563-60.414062 150.183594-62.304687zm-127.566406 346.679687c34.851562 32.285156 80.09375 51.054688 127.566406 52.921875v32c-55.957031-1.890625-109.324219-24.027343-150.183594-62.304687zm143.566406 52.921875c47.472656-1.867187 92.714844-20.636719 127.566406-52.921875l22.617188 22.617188c-40.859375 38.277344-94.226563 60.414062-150.183594 62.304687zm138.878906-64.234375c32.285156-34.851562 51.054688-80.09375 52.921875-127.566406h32c-1.890625 55.957031-24.027343 109.324219-62.304687 150.183594zm0 0"/><path d="m304 80c-13.253906 0-24 10.746094-24 24s10.746094 24 24 24 24-10.746094 24-24-10.746094-24-24-24zm0 32c-4.417969 0-8-3.582031-8-8s3.582031-8 8-8 8 3.582031 8 8-3.582031 8-8 8zm0 0"/><path d="m392 272c-13.253906 0-24 10.746094-24 24s10.746094 24 24 24 24-10.746094 24-24-10.746094-24-24-24zm0 32c-4.417969 0-8-3.582031-8-8s3.582031-8 8-8 8 3.582031 8 8-3.582031 8-8 8zm0 0"/><path d="m280 416c13.253906 0 24-10.746094 24-24s-10.746094-24-24-24-24 10.746094-24 24 10.746094 24 24 24zm0-32c4.417969 0 8 3.582031 8 8s-3.582031 8-8 8-8-3.582031-8-8 3.582031-8 8-8zm0 0"/><path d="m224 400c0 8.835938-7.164062 16-16 16s-16-7.164062-16-16 7.164062-16 16-16 16 7.164062 16 16zm0 0"/><path d="m120 312c0 8.835938-7.164062 16-16 16s-16-7.164062-16-16 7.164062-16 16-16 16 7.164062 16 16zm0 0"/><path d="m184 112c0 8.835938-7.164062 16-16 16s-16-7.164062-16-16 7.164062-16 16-16 16 7.164062 16 16zm0 0"/><path d="m416 216c0 8.835938-7.164062 16-16 16s-16-7.164062-16-16 7.164062-16 16-16 16 7.164062 16 16zm0 0"/><path d="m352 384c0 8.835938-7.164062 16-16 16s-16-7.164062-16-16 7.164062-16 16-16 16 7.164062 16 16zm0 0"/><path d="m112 192c13.253906 0 24-10.746094 24-24s-10.746094-24-24-24-24 10.746094-24 24 10.746094 24 24 24zm0-32c4.417969 0 8 3.582031 8 8s-3.582031 8-8 8-8-3.582031-8-8 3.582031-8 8-8zm0 0"/></svg>