<svg height="496pt" viewBox="-68 0 496 496.03975" width="496pt" xmlns="http://www.w3.org/2000/svg"><path d="m352.019531 8.039062h-104l-32 144h32l24-112h80zm0 0" fill="#d8d7da"/><path d="m56.019531 488.039062h176l32-296h-240zm96-96c4.417969 0 8 3.582032 8 8 0 4.417969-3.582031 8-8 8s-8-3.582031-8-8c0-4.417968 3.582031-8 8-8zm-32-72c8.835938 0 16 7.164063 16 16 0 8.835938-7.164062 16-16 16-8.835937 0-16-7.164062-16-16 0-8.835937 7.164063-16 16-16zm0 0" fill="#f7941d"/><path d="m8.019531 192.039062h272v-40h-272zm0 0" fill="#414042"/><path d="m264.019531 132.039062c0-11.046874-8.953125-20-20-20h-200c-11.046875 0-20 8.953126-20 20 0 11.046876 8.953125 20 20 20h200c11.046875 0 20-8.953124 20-20zm0 0" fill="#ffeb99"/><path d="m232.019531 92.039062c0-11.046874-8.953125-20-20-20h-136c-11.046875 0-20 8.953126-20 20 0 11.046876 8.953125 20 20 20h136c11.046875 0 20-8.953124 20-20zm0 0" fill="#ffeb99"/><path d="m200.019531 52.039062c.039063-11.003906-8.84375-19.957031-19.847656-20h-59.039063c-23.320312 0-32.257812-24-32.257812-24-23.816406 40 7.9375 64 7.9375 64h83.359375c11.003906-.042968 19.886719-8.996093 19.847656-20zm0 0" fill="#ffeb99"/><g fill="#acabb1"><path d="m136.019531 336.039062c0 8.835938-7.164062 16-16 16-8.835937 0-16-7.164062-16-16 0-8.835937 7.164063-16 16-16 8.835938 0 16 7.164063 16 16zm0 0"/><path d="m120.019531 352.039062c-8.824219-.027343-15.972656-7.175781-16-16 0 8.835938 7.164063 16 16 16zm0 0"/><path d="m120.019531 320.039062c-8.835937 0-16 7.164063-16 16 .027344-8.824218 7.175781-15.972656 16-16zm0 0"/><path d="m120.019531 352.039062c8.835938 0 16-7.164062 16-16-.027343 8.824219-7.175781 15.972657-16 16zm0 0"/><path d="m136.019531 336.039062c0-8.835937-7.164062-16-16-16 8.824219.027344 15.972657 7.175782 16 16zm0 0"/><path d="m160.019531 400.039062c0 4.417969-3.582031 8-8 8s-8-3.582031-8-8c0-4.417968 3.582031-8 8-8s8 3.582032 8 8zm0 0"/><path d="m160.019531 400.039062c0-4.417968-3.582031-8-8-8 4.417969 0 8 3.582032 8 8zm0 0"/><path d="m152.019531 408.039062c4.417969 0 8-3.582031 8-8 0 4.417969-3.582031 8-8 8zm0 0"/><path d="m152.019531 408.039062c-4.417969 0-8-3.582031-8-8 0 4.417969 3.582031 8 8 8zm0 0"/><path d="m152.019531 392.039062c-4.417969 0-8 3.582032-8 8 0-4.417968 3.582031-8 8-8zm0 0"/></g><path d="m280.019531 144.039062h-10.808593c1.824218-3.738281 2.785156-7.839843 2.808593-12 0-15.464843-12.535156-28-28-28h-6.808593c1.824218-3.738281 2.785156-7.839843 2.808593-12 0-15.464843-12.535156-28-28-28h-6.792969c4.1875-8.628906 3.636719-18.804687-1.457031-26.933593-5.089843-8.128907-14.007812-13.066407-23.597656-13.066407h-59.039063c-17.304687 0-24.449218-17.984374-24.800781-18.824218-1.066406-2.867188-3.667969-4.875-6.710937-5.1757815-3.070313-.3085935-6.039063 1.2070315-7.59375 3.8710935-12.355469 17.882813-13.34375 41.273438-2.535156 60.128906h-3.472657c-15.464843 0-28 12.535157-28 28 .023438 4.160157.984375 8.261719 2.808594 12h-6.808594c-15.464843 0-28 12.535157-28 28 .023438 4.160157.984375 8.261719 2.808594 12h-10.808594c-4.417969 0-7.9999998 3.582032-7.9999998 8v40c0 4.417969 3.5820308 8 7.9999998 8h8.800781l31.199219 288.855469c.441407 4.082031 3.894531 7.167969 8 7.144531h176c4.085938 0 7.515625-3.082031 7.953125-7.144531l31.246094-288.855469h8.800781c4.417969 0 8-3.582031 8-8v-40c0-4.417968-3.582031-8-8-8zm-190.09375-119.078124c7.558594 9.519531 19.046875 15.074218 31.207031 15.078124h59.039063c6.628906 0 12 5.375 12 12 0 6.628907-5.371094 12-12 12h-80.398437c-10.722657-9.933593-14.582032-25.25-9.847657-39.078124zm-25.90625 67.078124c0-6.625 5.371094-12 12-12h136c6.628907 0 12 5.375 12 12 0 6.628907-5.371093 12-12 12h-136c-6.628906 0-12-5.371093-12-12zm-32 40c0-6.625 5.371094-12 12-12h200c6.628907 0 12 5.375 12 12 0 6.628907-5.371093 12-12 12h-200c-6.628906 0-12-5.371093-12-12zm192.800781 348h-161.601562l-22.101562-204.3125c28.570312-23.777343 70.324218-22.753906 97.695312 2.402344 7.925781 6.957032 17.09375 12.363282 27.023438 15.925782.839843.289062 1.726562.4375 2.617187.441406 3.914063.011718 7.261719-2.8125 7.910156-6.675782.648438-3.859374-1.589843-7.625-5.296875-8.894531-8.027344-2.902343-15.4375-7.292969-21.839844-12.941406-30.386718-27.792969-75.847656-31.167969-110.007812-8.167969l-6.285156-57.777344h222.175781zm47.199219-296h-256v-24h256zm0 0"/><path d="m152.019531 448.039062h-8c-4.417969 0-8 3.582032-8 8 0 4.417969 3.582031 8 8 8h8c4.417969 0 8-3.582031 8-8 0-4.417968-3.582031-8-8-8zm0 0"/><path d="m120.523438 448.039062h-28.589844l-13.9375-128.855468c-.5625-4.3125-4.464844-7.382813-8.789063-6.917969s-7.480469 4.296875-7.113281 8.628906l14.703125 136c.4375 4.0625 3.863281 7.144531 7.949219 7.144531h35.777344c4.417968 0 8-3.582031 8-8 0-4.417968-3.582032-8-8-8zm0 0"/><path d="m352.019531.0390625h-104c-3.800781 0-7.078125 2.6757815-7.839843 6.4023435l-9.175782 45.886719c-.570312 2.804687.402344 5.703125 2.550782 7.59375 2.148437 1.894531 5.144531 2.496094 7.855468 1.574219 2.710938-.917969 4.726563-3.214844 5.28125-6.023438l7.886719-39.433594h89.441406v16h-72c-3.828125.003907-7.117187 2.714844-7.847656 6.472657l-9.183594 47.054687c-.847656 4.335938 1.984375 8.539063 6.320313 9.386719.503906.101563 1.019531.152344 1.535156.152344 3.824219-.007813 7.109375-2.71875 7.839844-6.472657l7.929687-40.59375h73.40625c4.417969 0 8-3.582031 8-8v-32c0-4.417968-3.582031-7.9999995-8-7.9999995zm0 0"/><path d="m169.835938 373.113281c1.519531 1.851563 3.789062 2.925781 6.183593 2.925781h32c3.828125 0 7.117188-2.714843 7.847657-6.472656l29.648437-151.925781c.847656-4.335937-1.984375-8.539063-6.320313-9.386719-4.335937-.84375-8.539062 1.984375-9.382812 6.320313l-28.382812 145.464843h-15.648438l28.46875-142.351562c.570312-2.804688-.402344-5.703125-2.550781-7.59375-2.144531-1.894531-5.144531-2.496094-7.855469-1.578125-2.710938.921875-4.726562 3.21875-5.28125 6.027344l-30.382812 151.898437c-.480469 2.359375.128906 4.808594 1.65625 6.671875zm0 0"/><path d="m120.019531 360.039062c13.253907 0 24-10.746093 24-24 0-13.253906-10.746093-24-24-24-13.253906 0-24 10.746094-24 24 0 13.253907 10.746094 24 24 24zm0-32c4.417969 0 8 3.582032 8 8 0 4.417969-3.582031 8-8 8s-8-3.582031-8-8c0-4.417968 3.582031-8 8-8zm0 0"/><path d="m168.019531 400.039062c0 8.835938-7.164062 16-16 16-8.835937 0-16-7.164062-16-16 0-8.835937 7.164063-16 16-16 8.835938 0 16 7.164063 16 16zm0 0"/></svg>